<?xml version="1.0" encoding="iso-8859-1"?>
<!-- Generator: Adobe Illustrator 19.0.0, SVG Export Plug-In . SVG Version: 6.00 Build 0)  -->
<svg version="1.1" id="Capa_1" xmlns="http://www.w3.org/2000/svg" xmlns:xlink="http://www.w3.org/1999/xlink" x="0px" y="0px"
	 viewBox="0 0 480 480" style="enable-background:new 0 0 480 480;" xml:space="preserve">
<g>
	<g>
		<path d="M472,0H8C3.584,0,0,3.584,0,8v464c0,4.416,3.584,8,8,8h464c4.416,0,8-3.584,8-8V8C480,3.584,476.416,0,472,0z M464,464H16
			V16h448V464z"/>
	</g>
</g>
<g>
	<g>
		<path d="M224,152c-4.416,0-8,3.584-8,8v8c0,4.416,3.584,8,8,8s8-3.584,8-8v-8C232,155.584,228.416,152,224,152z"/>
	</g>
</g>
<g>
	<g>
		<path d="M404,136c-19.848,0-36,16.152-36,36c0,6.952,2.072,13.392,5.496,18.904L355.368,208h-20.792
			c0.368-1.568,0.736-3.128,1.112-4.696c0.2-0.704,0.312-1.448,0.312-2.208c0-0.008,0-0.008,0-0.016c0-0.128,0-0.256,0-0.384
			c8-18.616,18.032-45.504,18.032-63.6c0-35.072-10.8-58.448-32.088-69.496c-8.504-4.888-22.304-5.144-38.072-4.928l-4.824,0.04
			c-11.08,0-20.832,2.32-29.568,6.832c-3.632,1.56-6.944,3.416-9.992,5.504c-0.616-0.44-1.224-0.872-1.824-1.264
			c-2.024-1.416-4.096-2.648-6.528-3.968c-0.064-0.032-0.648-0.344-0.712-0.384c-1.832-0.936-3.696-1.776-5.656-2.536
			c-0.36-0.192-0.744-0.368-1.136-0.504c-3-1.072-7.112-1.784-10.416-2.352c-0.872-0.152-1.64-0.28-2.2-0.392
			c-1.568-0.632-3.488-0.752-5.152-0.304c-13.616-0.848-41.224,1.704-41.528,1.792c-0.04,0.008-4.432,1.392-6.096,2.384
			c-19.432,9.984-29.656,29.904-31.336,60.496h-4.24L99.768,110.84C107.208,104.224,112,94.704,112,84c0-19.848-16.152-36-36-36
			S40,64.152,40,84s16.152,36,36,36c2.768,0,5.44-0.384,8.032-0.976L115.2,142.4c1.384,1.04,3.072,1.6,4.8,1.6h6.888
			c1.512,20.08,9.24,43.496,19.664,58.744c2.216,11.76,13.272,69.216,16.184,83.544c1.792,8.848,8.368,15.776,16.848,17.992
			c3.56,1.096,7.016,1.44,9.792-0.28h11.88c2.448,1.256,5.528,1.232,8.688,0.32c8.216-2.008,14.568-7.976,17.088-16.264
			l12.784-50.624l13.24,51.008c2.408,7.904,8.92,14.048,16.712,15.952c1.896,0.536,3.656,0.8,5.368,0.8
			c1.44,0,2.824-0.44,4.032-1.192h11.888c2.448,1.264,5.56,1.296,9.032,0.216c7.728-2.016,16.408-8.376,18.352-18
			c0.952-4.704,2.032-10.304,3.24-16.584c2.44-12.688,5.536-28.72,9.232-45.632h27.616c2.04,0,4-0.784,5.488-2.176l20.696-19.52
			C390.32,205.864,396.896,208,404,208c19.848,0,36-16.152,36-36C440,152.152,423.848,136,404,136z M76,104
			c-11.024,0-20-8.976-20-20s8.976-20,20-20s20,8.976,20,20S87.024,104,76,104z M183.688,288.816
			c-0.064-0.016-0.128-0.04-0.192-0.056c0.552-0.144,1.12-0.208,1.728-0.176C184.696,288.6,184.184,288.68,183.688,288.816z
			 M273.472,288.816c-0.072-0.016-0.136-0.04-0.208-0.064c0.544-0.144,1.12-0.2,1.688-0.168
			C274.448,288.608,273.952,288.688,273.472,288.816z M320.6,194.872c-0.68,0.952-1.152,2.04-1.368,3.192
			c-0.208,1.12-0.256,2.552,0.256,4.136c-0.464,1.936-0.912,3.864-1.36,5.8H280c-4.416,0-8,3.584-8,8s3.584,8,8,8h34.56
			c-3.408,15.824-6.28,30.688-8.576,42.608c-1.2,6.216-2.264,11.768-3.208,16.432c-0.424,2.104-2.864,4.344-5.976,5.464
			c-0.848-0.328-1.752-0.504-2.672-0.504h-18.472c-0.992,0-1.96,0.208-2.864,0.584c-2.112-0.856-3.752-2.576-4.336-4.48
			l-13.152-50.688c-1.832-7.088-7.992-11.848-15.312-11.848c-7.312,0-13.456,4.752-15.288,11.832l-13.064,50.32
			c-0.664,2.184-2.304,3.896-4.624,4.784c-0.848-0.328-1.752-0.504-2.672-0.504h-18.472c-0.992,0-1.96,0.208-2.856,0.584
			c-2.368-0.944-4.096-2.968-4.6-5.472c-3.296-16.216-15.704-80.904-16.456-84.984c-0.216-1.168-0.68-2.272-1.376-3.232
			c-8.888-12.32-16.064-33.448-17.664-50.888H184c4.416,0,8-3.584,8-8s-3.584-8-8-8h-41.136
			c1.416-24.224,8.712-39.088,22.864-46.368c0.616-0.304,1.744-0.704,2.464-0.952c5.264-0.336,33.632-1.464,38.92-1.6
			c1.168,0.312,2.336,0.512,3.376,0.688c2.12,0.368,5.184,0.904,7.08,1.448c0.248,0.128,0.504,0.232,0.776,0.336
			c1.632,0.6,3.216,1.296,4.776,2.096l3.656-7.12l-2.904,7.528c1.24,0.672,2.52,1.472,3.832,2.344
			C219.96,96.864,216,110.704,216,128c0,4.416,3.584,8,8,8s8-3.584,8-8c0-15.48,3.632-27,11.184-35.024
			c0.76-0.336,1.512-0.728,2.16-1.312c0.896-0.8,1.808-1.576,2.752-2.312l-0.36-0.464c0.216-0.16,0.4-0.344,0.624-0.504l0.432,0.448
			c0.832-0.624,1.664-1.248,2.736-1.96c1.64-1.152,3.336-2.096,5.056-3c7.688-3.2,17.272-4.872,28.872-5.128
			c0.16,0,0.288-0.088,0.448-0.104c8.872-0.096,23.144-0.08,28.12,2.856c0.136,0.08,0.272,0.152,0.408,0.224
			c15.872,8.152,23.584,26.264,23.584,55.36C338.016,153.392,331.912,179.192,320.6,194.872z M404,192c-11.024,0-20-8.976-20-20
			s8.976-20,20-20s20,8.976,20,20S415.024,192,404,192z"/>
	</g>
</g>
<g>
	<g>
		<path d="M328,416h-64c-4.416,0-8,3.584-8,8c0,4.416,3.584,8,8,8h64c4.416,0,8-3.584,8-8C336,419.584,332.416,416,328,416z"/>
	</g>
</g>
<g>
	<g>
		<path d="M432,416h-72c-4.416,0-8,3.584-8,8c0,4.416,3.584,8,8,8h72c4.416,0,8-3.584,8-8C440,419.584,436.416,416,432,416z"/>
	</g>
</g>
<g>
	<g>
		<path d="M96,320c-30.88,0-56,25.12-56,56s25.12,56,56,56s56-25.12,56-56S126.88,320,96,320z M96,416c-22.056,0-40-17.944-40-40
			c0-19.32,13.768-35.48,32-39.192V376c0,4.416,3.584,8,8,8h39.192C131.48,402.232,115.312,416,96,416z M104,368v-31.192
			c15.648,3.184,28.008,15.544,31.192,31.192H104z"/>
	</g>
</g>
<g>
	<g>
		<path d="M432,376h-26.232l-22.176-66.528c-1.024-3.064-3.8-5.216-7.024-5.448c-3.184-0.192-6.272,1.504-7.72,4.4l-27.944,55.896
			l-16.464-10.976c-2.52-1.68-5.776-1.784-8.408-0.288l-56,32c-3.832,2.192-5.168,7.08-2.976,10.912
			c1.472,2.584,4.176,4.032,6.952,4.032c1.344,0,2.712-0.336,3.96-1.056l51.704-29.544l19.888,13.256
			c1.912,1.272,4.28,1.648,6.496,1.072c2.216-0.584,4.072-2.104,5.104-4.152l23.36-46.728l17.888,53.68
			C393.504,389.8,396.552,392,400,392h32c4.416,0,8-3.584,8-8C440,379.584,436.416,376,432,376z"/>
	</g>
</g>
<g>
</g>
<g>
</g>
<g>
</g>
<g>
</g>
<g>
</g>
<g>
</g>
<g>
</g>
<g>
</g>
<g>
</g>
<g>
</g>
<g>
</g>
<g>
</g>
<g>
</g>
<g>
</g>
<g>
</g>
</svg>
