<?xml version="1.0" encoding="iso-8859-1"?>
<!-- Generator: Adobe Illustrator 19.0.0, SVG Export Plug-In . SVG Version: 6.00 Build 0)  -->
<svg version="1.1" id="Capa_1" xmlns="http://www.w3.org/2000/svg" xmlns:xlink="http://www.w3.org/1999/xlink" x="0px" y="0px"
	 viewBox="0 0 480 480" style="enable-background:new 0 0 480 480;" xml:space="preserve">
<g>
	<g>
		<rect x="239.998" y="432" width="72" height="16"/>
	</g>
</g>
<g>
	<g>
		<path d="M351.902,470.744L329.374,328.08c-1.36-8.624-7.304-15.84-15.512-18.824l-10.584-3.848l-15.032-127.76
			c0.12-0.112,0.208-0.248,0.32-0.36c0.648-0.624,1.208-1.312,1.776-2.008c0.44-0.528,0.912-1.016,1.304-1.576
			c0.536-0.768,0.968-1.608,1.408-2.448c0.304-0.568,0.664-1.104,0.92-1.696c0.424-0.968,0.704-2,0.992-3.032
			c0.152-0.528,0.376-1.024,0.488-1.576c0.352-1.6,0.544-3.248,0.544-4.952v-16c0-1.72-0.2-3.392-0.544-5.008
			c-0.112-0.536-0.328-1.024-0.48-1.544c-0.304-1.056-0.6-2.104-1.04-3.096c-0.256-0.584-0.608-1.104-0.904-1.664
			c-0.464-0.856-0.912-1.712-1.472-2.504c-0.392-0.552-0.848-1.04-1.28-1.552c-0.592-0.704-1.184-1.4-1.848-2.032
			c-0.152-0.144-0.272-0.328-0.424-0.472V88c0-48.52-39.48-88-88-88h-48c-48.52,0-88,39.48-88,88v38.128
			c-0.16,0.144-0.272,0.328-0.424,0.472c-0.672,0.632-1.256,1.328-1.848,2.032c-0.432,0.512-0.888,1-1.28,1.552
			c-0.56,0.792-1.008,1.64-1.472,2.496c-0.304,0.56-0.648,1.088-0.912,1.672c-0.432,0.984-0.728,2.04-1.032,3.088
			c-0.152,0.52-0.368,1.016-0.48,1.552c-0.36,1.616-0.56,3.288-0.56,5.008v16c0,1.704,0.192,3.36,0.528,4.96
			c0.112,0.544,0.336,1.032,0.488,1.56c0.296,1.032,0.576,2.064,1,3.04c0.264,0.6,0.616,1.128,0.928,1.704
			c0.448,0.832,0.872,1.672,1.408,2.448c0.392,0.56,0.864,1.048,1.296,1.568c0.576,0.688,1.136,1.392,1.784,2.008
			c0.12,0.112,0.2,0.256,0.32,0.36l-15.032,127.76l-10.584,3.848c-8.2,2.984-14.152,10.192-15.504,18.816L0.102,470.752
			c-0.368,2.312,0.296,4.672,1.816,6.448c1.52,1.776,3.744,2.8,6.08,2.8h336c2.336,0,4.56-1.024,6.088-2.808
			C351.598,475.416,352.262,473.056,351.902,470.744z M202.03,303.144c0,0.008,0,0.008-0.008,0.008
			c-11.312,9.696-26.448,12.12-39.672,7.272c-4.408-1.616-8.608-4.04-12.384-7.28l-19.632-16.824L148.526,256h8.096h41.688h5.16
			l18.192,30.32L202.03,303.144z M212.862,314.936L205.798,333c-5.864,14.992-19.24,20.336-29.8,20.336s-23.928-5.344-29.8-20.336
			l-7.064-18.064l0.416,0.36c15.84,13.584,37.04,16.976,55.56,10.184c6.176-2.264,12.048-5.656,17.336-10.184L212.862,314.936z
			 M118.782,219.752c-9.672-14.512-14.784-31.384-14.784-48.816V128h64c0,30.872,25.128,56,56,56h23.024
			c-1.904,12.736-6.576,24.904-13.808,35.752l-1.624,2.44C224.158,233.344,211.71,240,198.31,240h-41.688
			C141.382,240,127.23,232.432,118.782,219.752z M219.582,251.752c10.16-4.168,19.032-11.256,25.32-20.688l1.624-2.44
			c8.992-13.48,14.592-28.712,16.592-44.624h8.88h0.88v0l13.568,115.288l-49.048-17.832L219.582,251.752z M279.998,144v16
			c0,4.416-3.584,8-8,8h-8v-32h8C276.414,136,279.998,139.584,279.998,144z M79.998,88c0-39.704,32.296-72,72-72h48
			c39.704,0,72,32.296,72,72v32h-16c-4.424,0-8,3.576-8,8v40h-24c-22.056,0-40-17.944-40-40v-8c0-4.424-3.576-8-8-8h-72V96h-16v24
			h-8V88z M71.998,144c0-4.416,3.584-8,8-8h8v32h-8c-4.416,0-8-3.584-8-8V144z M79.118,184h0.88h8.872
			c2,15.904,7.6,31.144,16.592,44.624c6.8,10.208,16.376,17.896,27.328,22.496l-18.2,30.328L65.542,299.28L79.118,184z M175.998,464
			H17.358l21.08-133.44c0.448-2.864,2.432-5.272,5.168-6.272l12-4.36c1.072,0.056,2.16-0.048,3.208-0.432l56.608-21.232
			l15.872,40.568c7.368,18.824,24.496,30.504,44.704,30.504s37.336-11.688,44.704-30.504l15.872-40.568l56.608,21.232
			c0.92,0.336,1.872,0.504,2.816,0.504c0.144,0,0.272-0.064,0.408-0.072l11.984,4.36c2.736,1,4.72,3.408,5.168,6.28L334.638,464
			H175.998z"/>
	</g>
</g>
<g>
	<g>
		<path d="M181.678,386.32c-2.96-2.96-8.4-2.96-11.36,0c-1.448,1.512-2.32,3.6-2.32,5.68c0,2.16,0.8,4.16,2.32,5.68
			c1.512,1.512,3.512,2.32,5.68,2.32c2.16,0,4.16-0.808,5.68-2.32c1.512-1.52,2.32-3.52,2.32-5.68
			C183.998,389.92,183.118,387.832,181.678,386.32z"/>
	</g>
</g>
<g>
	<g>
		<path d="M183.358,420.96c-0.4-0.96-0.96-1.84-1.68-2.64c-3.04-2.96-8.4-2.96-11.36,0c-0.72,0.8-1.28,1.68-1.68,2.64
			c-0.4,0.96-0.64,2-0.64,3.04c0,2.16,0.8,4.16,2.32,5.68c1.512,1.512,3.512,2.32,5.68,2.32c1.04,0,2.08-0.24,3.04-0.64
			c0.96-0.4,1.832-0.96,2.64-1.68c1.512-1.52,2.32-3.52,2.32-5.68C183.998,422.96,183.758,421.92,183.358,420.96z"/>
	</g>
</g>
<g>
	<g>
		<path d="M181.678,450.32c-3.04-2.96-8.4-2.96-11.36,0c-1.448,1.512-2.32,3.6-2.32,5.68c0,2.16,0.8,4.16,2.32,5.68
			c0.8,0.72,1.68,1.28,2.64,1.68c0.96,0.4,2,0.64,3.04,0.64c2.16,0,4.16-0.808,5.68-2.32c1.512-1.52,2.32-3.52,2.32-5.68
			C183.998,453.92,183.118,451.832,181.678,450.32z"/>
	</g>
</g>
<g>
	<g>
		<path d="M407.998,56h-64c-13.232,0-24,11.424-24,25.456v24.384c0,2.2,0.408,4.352,1.2,6.36l17.896,45.584
			c2.24,5.656,7.24,9.584,13.072,10.248c5.672,0.592,11.368-1.976,14.736-6.856l8.904-13.52l9.304,13.528
			c3.016,4.384,7.88,6.944,12.992,6.944c0.576,0,1.16-0.032,1.736-0.096c5.832-0.664,10.832-4.592,13.064-10.264l17.24-43.896
			c1.232-3.12,1.856-6.424,1.856-9.824V81.456C431.998,67.424,421.23,56,407.998,56z M415.998,104.048
			c0,1.376-0.248,2.696-0.744,3.952l-16.968,44.112L388.99,138.6c-2.992-4.368-7.848-6.968-12.992-6.968
			c-5.144,0-10,2.6-12.992,6.96l-9.016,13.336l-17.992-46.096V81.456c0-5.216,3.584-9.456,8-9.456h27.232
			c-2,4.696-3.232,10.096-3.232,16c0,4.424,3.576,8,8,8s8-3.576,8-8c0-9.768,4.736-16,8-16h16c4.416,0,8,4.24,8,9.456V104.048z"/>
	</g>
</g>
<g>
	<g>
		<path d="M375.998,0c-29.544,0-57.8,12.632-77.512,34.664c-2.944,3.296-2.664,8.352,0.624,11.296
			c3.304,2.952,8.352,2.664,11.296-0.624C327.094,26.696,350.998,16,375.998,16c48.52,0,88,39.48,88,88s-39.48,88-88,88
			c-18.552,0-36.296-5.704-51.304-16.496c-3.6-2.6-8.592-1.768-11.168,1.824c-2.584,3.584-1.768,8.584,1.824,11.168
			C333.102,201.256,354.078,208,375.998,208c57.344,0,104-46.656,104-104S433.342,0,375.998,0z"/>
	</g>
</g>
<g>
</g>
<g>
</g>
<g>
</g>
<g>
</g>
<g>
</g>
<g>
</g>
<g>
</g>
<g>
</g>
<g>
</g>
<g>
</g>
<g>
</g>
<g>
</g>
<g>
</g>
<g>
</g>
<g>
</g>
</svg>
