<?xml version="1.0" encoding="iso-8859-1"?>
<!-- Generator: Adobe Illustrator 19.0.0, SVG Export Plug-In . SVG Version: 6.00 Build 0)  -->
<svg version="1.1" id="Capa_1" xmlns="http://www.w3.org/2000/svg" xmlns:xlink="http://www.w3.org/1999/xlink" x="0px" y="0px"
	 viewBox="0 0 480.225 480.225" style="enable-background:new 0 0 480.225 480.225;" xml:space="preserve">
<g>
	<g>
		<path d="M384.113,104.201h-8v-8c0-4.416-3.576-8-8-8s-8,3.584-8,8v8h-8c-4.424,0-8,3.584-8,8s3.576,8,8,8h8v8c0,4.416,3.576,8,8,8
			s8-3.584,8-8v-8h8c4.424,0,8-3.584,8-8S388.537,104.201,384.113,104.201z"/>
	</g>
</g>
<g>
	<g>
		<path d="M404.185,9.313c-16.784-9.912-49.92-9.504-74.088-9.2c-3.616,0.048-6.984,0.088-9.984,0.088
			c-27.472,0-49.832,6.72-70.184,21.016c-2.272,1.488-4.448,3.112-7.096,5.104l-1.112,0.832c-0.536,0.416-1.072,0.84-1.6,1.272
			c-3.224-2.624-6.432-4.976-9.616-7.064c-20.56-14.44-42.92-21.16-70.392-21.16c-3,0-6.368-0.04-9.984-0.088
			c-24.208-0.296-57.304-0.712-73.672,8.968c-40.6,20.864-60.344,65.064-60.344,135.12c0,42.176,17.312,98.152,40.456,131.192
			c12.84,70.12,26.464,138.272,33.464,172.816c3.04,14.968,14.176,26.696,28.752,30.504c3.144,0.968,6.064,1.488,9.496,1.488
			c0.008,0,0.016,0,0.024,0c0.32,0,0.696,0,0.92,0h37.84c0.488,0.008,0.808,0,1.048,0c2.784,0,5.544-0.416,8.432-1.24
			c13.688-3.344,24.72-13.736,28.88-27.44l26.944-103.824c1.448-5.552,6.288-5.984,7.744-5.984s6.296,0.44,7.744,5.992
			l27.032,104.16c4.08,13.376,15.112,23.776,28.512,27.048c2.992,0.848,5.632,1.288,8.84,1.288c0.008,0,0.024,0,0.032,0
			c0.304,0,0.672,0.024,0.888,0.024l38.032-0.072c0.32,0.024,0.68,0.048,0.92,0.048c2.976,0,6.024-0.496,9.008-1.416
			c14.896-3.896,26.04-15.616,29.08-30.584c7-34.544,20.616-102.696,33.464-172.816c23.136-33.032,40.448-89.008,40.448-131.184
			C464.113,74.145,444.369,29.946,404.185,9.313z M409.617,267.521c-0.696,0.968-1.168,2.072-1.376,3.24
			c-12.912,70.6-26.68,139.48-33.736,174.256c-1.816,8.936-8.496,15.944-17.768,18.376c-1.664,0.512-3.064,0.768-4.36,0.8
			c-0.304-0.016-0.736-0.024-1.384,0l-37.208,0.032c-0.344-0.04-0.904-0.08-1.288-0.08c-0.232,0-0.448,0.016-0.72,0.04
			c-1.176-0.04-2.488-0.272-4.304-0.776c-8.224-2.016-14.848-8.232-17.192-15.912l-26.944-103.832
			c-2.784-10.752-12.12-17.976-23.224-17.976s-20.448,7.224-23.224,17.976l-26.856,103.504c-2.432,8-9.056,14.224-17.56,16.312
			c-1.592,0.448-2.896,0.672-4.096,0.704c-0.312-0.008-0.704-0.008-1.304,0l-37.16,0.032c-0.376-0.04-0.744-0.08-1.456-0.088
			c-0.168,0-0.424,0.024-0.672,0.048c-1.28-0.04-2.688-0.304-4.632-0.888c-8.944-2.344-15.624-9.352-17.44-18.288
			c-7.056-34.776-20.824-103.664-33.736-174.256c-0.208-1.168-0.68-2.28-1.376-3.24c-21.944-30.416-38.488-83.432-38.488-123.304
			c0-64.368,16.416-102.784,52.072-121.112c12.92-7.632,44.68-7.224,65.744-6.976c3.688,0.048,7.12,0.088,10.184,0.088
			c24.016,0,43.464,5.8,61.392,18.384c4.472,2.936,8.816,6.312,13.272,10.304c3.032,2.728,7.624,2.72,10.672,0
			c1.976-1.776,4.008-3.488,6.104-5.112l0.752-0.56c0.024-0.016,0.624-0.464,0.656-0.488c1.88-1.424,3.768-2.84,5.968-4.288
			c17.72-12.44,37.168-18.24,61.184-18.24c3.064,0,6.496-0.04,10.184-0.088c21.04-0.248,52.832-0.656,66.16,7.208
			c35.24,18.096,51.656,56.512,51.656,120.88C448.113,184.073,431.569,237.089,409.617,267.521z"/>
	</g>
</g>
<g>
	<g>
		<path d="M317.673,114.441c-2.008-1.928-4.864-2.68-7.568-1.984l-37.696,9.768l-25.64-38.464c-2.968-4.456-10.344-4.456-13.312,0
			l-25.64,38.464l-37.696-9.768c-2.672-0.696-5.56,0.048-7.56,1.992c-2.008,1.936-2.856,4.768-2.256,7.488l15.808,71.152v32.944
			c0,5.12,0.96,10.12,2.856,14.856l9.688,24.216c3.672,9.176,12.416,15.096,22.288,15.096h2.328c9.872,0,18.616-5.92,22.288-15.088
			l4.552-11.376l4.544,11.376c3.672,9.168,12.416,15.088,22.288,15.088h2.328c9.872,0,18.616-5.92,22.288-15.088l9.68-24.216
			c1.912-4.736,2.872-9.736,2.872-14.864v-32.944l15.816-71.16C320.529,119.209,319.681,116.377,317.673,114.441z M288.113,226.033
			c0,3.072-0.576,6.072-1.72,8.912l-9.688,24.216c-1.216,3.064-4.136,5.04-7.424,5.04h-2.328c-3.288,0-6.208-1.976-7.432-5.032
			l-11.976-29.944c-1.224-3.032-4.16-5.024-7.432-5.024c-3.272,0-6.208,1.992-7.432,5.024l-11.976,29.944
			c-1.216,3.056-4.136,5.032-7.424,5.032h-2.328c-3.288,0-6.208-1.976-7.432-5.032l-9.696-24.224
			c-1.136-2.84-1.712-5.832-1.712-8.912v-25.832h96V226.033z M289.697,184.201h-99.168l-11.768-52.976l30.544,7.92
			c3.296,0.872,6.776-0.472,8.664-3.304l22.144-33.216l22.144,33.216c1.888,2.832,5.368,4.176,8.664,3.304l30.544-7.92
			L289.697,184.201z"/>
	</g>
</g>
<g>
	<g>
		<path d="M144.113,200.201h-8v-8c0-4.416-3.576-8-8-8c-4.424,0-8,3.584-8,8v8h-8c-4.424,0-8,3.584-8,8s3.576,8,8,8h8v8
			c0,4.416,3.576,8,8,8c4.424,0,8-3.584,8-8v-8h8c4.424,0,8-3.584,8-8S148.537,200.201,144.113,200.201z"/>
	</g>
</g>
<g>
</g>
<g>
</g>
<g>
</g>
<g>
</g>
<g>
</g>
<g>
</g>
<g>
</g>
<g>
</g>
<g>
</g>
<g>
</g>
<g>
</g>
<g>
</g>
<g>
</g>
<g>
</g>
<g>
</g>
</svg>
