<?xml version="1.0" encoding="iso-8859-1"?>
<!-- Generator: Adobe Illustrator 19.0.0, SVG Export Plug-In . SVG Version: 6.00 Build 0)  -->
<svg version="1.1" id="Capa_1" xmlns="http://www.w3.org/2000/svg" xmlns:xlink="http://www.w3.org/1999/xlink" x="0px" y="0px"
	 viewBox="0 0 480.206 480.206" style="enable-background:new 0 0 480.206 480.206;" xml:space="preserve">
<g>
	<g>
		<path d="M200.103,176.206c-4.416,0-8,3.584-8,8v24c0,4.416,3.584,8,8,8s8-3.584,8-8v-24
			C208.103,179.79,204.519,176.206,200.103,176.206z"/>
	</g>
</g>
<g>
	<g>
		<path d="M404.175,9.318c-16.784-9.912-49.92-9.504-74.088-9.2c-3.616,0.048-6.984,0.088-9.984,0.088
			c-27.472,0-49.832,6.72-70.184,21.016c-0.352,0.232-0.704,0.496-1.048,0.728c-0.752,0.512-1.504,1.024-2.24,1.552
			c-1.192,0.864-2.432,1.792-3.808,2.824l-1.112,0.832c-0.536,0.416-1.072,0.84-1.6,1.272c-3.224-2.624-6.424-4.968-9.616-7.064
			c-20.552-14.44-42.92-21.16-70.392-21.16c-3,0-6.368-0.04-9.992-0.088c-24.192-0.312-57.296-0.712-73.664,8.968
			C35.839,29.95,16.103,74.142,16.103,144.206c0,42.184,17.32,98.16,40.448,131.184c1.856,10.152,3.744,20.272,5.624,30.288
			c0.712,3.784,4.008,6.528,7.864,6.528h20.352l8.152,23.784c3.328,9.704,12.448,16.216,22.704,16.216h1.912l8.696,17.392
			c-2.208,1.424-3.752,3.784-3.752,6.608c0,4.416,3.584,8,8,8h3.056l8.696,17.392c-2.208,1.424-3.752,3.784-3.752,6.608
			c0,4.416,3.584,8,8,8h3.056l8.696,17.392c-2.208,1.424-3.752,3.784-3.752,6.608c0,4.416,3.584,8,8,8h3.056l9.368,18.736
			c4.088,8.184,12.32,13.264,21.464,13.264h76.224c9.152,0,17.376-5.08,21.472-13.264l9.36-18.736h3.056c4.424,0,8-3.584,8-8
			c0-2.824-1.544-5.184-3.752-6.608l8.696-17.392h3.056c4.424,0,8-3.584,8-8c0-2.824-1.544-5.184-3.752-6.608l8.696-17.392h3.056
			c4.424,0,8-3.584,8-8c0-2.824-1.544-5.184-3.752-6.608l8.696-17.392h1.912c10.248,0,19.376-6.512,22.704-16.216l8.16-23.784
			h20.352c3.848,0,7.16-2.744,7.856-6.528c1.88-10.016,3.76-20.136,5.616-30.288c23.144-33.032,40.456-89.008,40.456-131.184
			C464.103,74.15,444.359,29.95,404.175,9.318z M285.367,459.782c-1.368,2.728-4.104,4.424-7.152,4.424h-76.224
			c-3.048,0-5.792-1.696-7.152-4.424l-5.792-11.576h102.112L285.367,459.782z M331.159,368.206h-43.056c-4.424,0-8,3.584-8,8
			c0,4.416,3.576,8,8,8h35.056l-8,16h-91.056c-4.416,0-8,3.584-8,8c0,4.416,3.584,8,8,8h83.056l-8,16H181.047l-8-16h19.056
			c4.416,0,8-3.584,8-8c0-4.416-3.584-8-8-8h-27.056l-8-16h99.056c4.424,0,8-3.584,8-8c0-4.416-3.576-8-8-8H149.047l-8-16h198.112
			L331.159,368.206z M366.527,330.798c-1.112,3.24-4.152,5.408-7.568,5.408h-6.856h-224h-6.856c-3.416,0-6.464-2.168-7.568-5.408
			l-6.376-18.592h265.6L366.527,330.798z M409.607,267.526c-0.696,0.968-1.168,2.072-1.376,3.24c-1.56,8.512-3.136,17-4.704,25.44
			h-19.424h-288H76.679c-1.576-8.432-3.152-16.928-4.704-25.44c-0.216-1.168-0.688-2.28-1.384-3.24
			c-21.944-30.424-38.488-83.44-38.488-123.32c0-64.368,16.416-102.784,52.064-121.112c12.928-7.632,44.68-7.232,65.744-6.976
			c3.696,0.048,7.128,0.088,10.192,0.088c24.016,0,43.464,5.8,61.4,18.384c2.32,1.52,4.6,3.176,6.88,4.96
			c-22.656,24.28-36.28,58.104-36.28,96.656c0,4.416,3.584,8,8,8s8-3.584,8-8c0-68.408,48.152-120,112-120
			c3.064,0,6.496-0.04,10.184-0.088c21.04-0.264,52.832-0.656,66.16,7.208c35.24,18.096,51.656,56.512,51.656,120.88
			C448.103,184.078,431.559,237.094,409.607,267.526z"/>
	</g>
</g>
<g>
	<g>
		<path d="M411.935,121.19l-23.8-13.016l-13.024-23.808c-2.8-5.128-11.232-5.128-14.032,0l-13.024,23.808l-23.8,13.016
			c-2.56,1.4-4.152,4.088-4.152,7.016c0,2.928,1.592,5.616,4.168,7.016l23.8,13.016l13.024,23.808c1.392,2.56,4.088,4.16,7.008,4.16
			c2.92,0,5.616-1.6,7.016-4.16l13.024-23.808l23.8-13.016c2.568-1.4,4.16-4.088,4.16-7.016
			C416.103,125.278,414.511,122.59,411.935,121.19z M378.407,135.326c-1.344,0.736-2.448,1.84-3.176,3.176l-7.128,13.032
			l-7.128-13.024c-0.736-1.336-1.832-2.448-3.176-3.176l-13.024-7.128l13.024-7.12c1.344-0.736,2.448-1.84,3.176-3.176l7.128-13.032
			l7.128,13.024c0.736,1.336,1.832,2.448,3.176,3.176l13.024,7.128L378.407,135.326z"/>
	</g>
</g>
<g>
</g>
<g>
</g>
<g>
</g>
<g>
</g>
<g>
</g>
<g>
</g>
<g>
</g>
<g>
</g>
<g>
</g>
<g>
</g>
<g>
</g>
<g>
</g>
<g>
</g>
<g>
</g>
<g>
</g>
</svg>
