<?xml version="1.0" encoding="iso-8859-1"?>
<!-- Generator: Adobe Illustrator 19.0.0, SVG Export Plug-In . SVG Version: 6.00 Build 0)  -->
<svg version="1.1" id="Capa_1" xmlns="http://www.w3.org/2000/svg" xmlns:xlink="http://www.w3.org/1999/xlink" x="0px" y="0px"
	 viewBox="0 0 483.402 483.402" style="enable-background:new 0 0 483.402 483.402;" xml:space="preserve">
<g>
	<g>
		<path d="M473.036,355.402H307.3c-19.424-11.944-47.792-29.488-57.768-35.896c4.144-21.488,8.544-44.712,12.856-68.232
			c4.168-5.968,8.104-12.784,11.768-20.136c0.024-0.048,0.08-0.08,0.104-0.136c0.28-0.568,0.528-1.184,0.808-1.76
			c0.432-0.88,0.864-1.752,1.28-2.648c8.752,5.76,18.256,8.808,28.088,8.808c0.568,0,1.144-0.008,1.712-0.032
			c13.328-0.472,26.52-6.584,37.16-17.224c10.192-10.192,16.2-24.744,16.488-39.912c0.232-12.528-3.48-24.576-10.344-34.104
			l23.088-23.088l5.656,5.656c1.544,1.544,3.592,2.344,5.664,2.344c1.536,0,3.08-0.44,4.432-1.344l28.488-18.984l1.016,1.016
			c1.504,1.504,3.536,2.344,5.656,2.344s4.16-0.84,5.656-2.344l50.912-50.912c3.128-3.128,3.128-8.184,0-11.312L434.764,2.25
			c-3-3-8.312-3-11.312,0L372.54,53.162c-3.128,3.128-3.128,8.184,0,11.312l1.016,1.016l-18.984,28.488
			c-2.12,3.168-1.696,7.4,1,10.096l5.656,5.656l-28.288,28.28c-1.504,1.504-2.344,3.528-2.344,5.656c0,2.128,0.84,4.16,2.344,5.656
			c14.8,14.808,14.352,42.208-0.944,57.504c-7.768,7.768-17.152,12.224-26.408,12.544c-7.84,0.344-15.64-2.496-22.824-7.92
			c0.264-0.68,0.512-1.376,0.768-2.064c0.544-1.456,1.064-2.912,1.584-4.384c0.992-2.824,1.944-5.672,2.848-8.544
			c0.408-1.312,0.8-2.624,1.184-3.944c0.832-2.8,1.608-5.616,2.344-8.44c0.28-1.072,0.56-2.136,0.824-3.208
			c0.88-3.576,1.68-7.152,2.384-10.712c0.144-0.72,0.264-1.424,0.4-2.144c0.656-3.44,1.232-6.856,1.712-10.24
			c0.056-0.408,0.128-0.824,0.184-1.232c0.496-3.64,0.864-7.208,1.144-10.728c0.056-0.736,0.104-1.464,0.152-2.192
			c0.232-3.512,0.4-6.976,0.4-10.312c0-63.04-17.784-102.872-54.352-121.776c-1.912-1.112-4.048-2.072-6.368-2.912
			C221.74,2.746,196.668,3.058,177.7,3.29c-3.24,0.04-6.256,0.08-8.944,0.08c-2.904,0-5.744,0.088-8.544,0.272
			c-19.528,1.184-36.152,6.192-51.432,16.12c-0.016,0.016-0.032-0.36-0.048-0.36h-0.008c-1.112,0-2.24,1.792-3.336,2.56
			c-2.016,1.32-3.952,2.968-6.408,4.808l-0.992,0.84c-0.312,0.24-0.632,0.536-0.936,0.784c-2.744-2.2-5.456-4.152-8.152-5.92
			C70.332,9.426,50.124,3.362,25.316,3.362c-2.752,0-5.856-0.032-9.2-0.072L9.1,3.226c-1.904,0.08-4.184,0.832-5.696,2.32
			c-1.52,1.504-2.368,3.552-2.368,5.688v416.168v48c0,4.424,3.584,8,8,8h464c4.416,0,8-3.576,8-8v-112
			C481.036,358.978,477.452,355.402,473.036,355.402z M429.108,19.218l33.944,33.944l-39.6,39.6l-33.944-33.944L429.108,19.218z
			 M385.092,77.026l3.592,3.592l16.544,16.552l-20.36,13.568l-13.352-13.352L385.092,77.026z M169.036,19.402
			c0.048,0,0.08-0.024,0.128-0.024c2.648-0.008,5.576-0.04,8.736-0.08c17.6-0.232,47.128-0.592,58.512,6.152
			c0.136,0.08,0.272,0.16,0.416,0.224c31.296,16.072,45.864,50.272,45.864,107.64c0,2.944-0.128,6.016-0.336,9.168
			c-0.024,0.328-0.048,0.656-0.072,0.984c-1.248,16.848-5.416,36.128-11.568,54.216c-3.048-5.672-4.808-11.768-4.736-18.392
			c0.056-4.424-3.488-7.888-7.904-7.888c-0.032,0-0.056,0-0.088,0c-4.376,0-7.952,3.328-8,7.712
			c-0.144,13.696,4.752,26.488,13.76,36.64c-0.216,0.496-0.416,0.976-0.632,1.464c-4.216-1.264-8.44-1.944-12.336-2.56
			c-10.8-1.68-17.144-3.032-21.888-10.896c-4.728-7.84-2.944-14.072,0.624-24.384c3.576-10.352,8.032-23.232-0.8-37.872
			c-8.824-14.632-22.296-16.696-33.112-18.352c-10.784-1.656-17.12-2.968-21.84-10.808c-4.728-7.832-2.936-14.056,0.632-24.368
			c3.576-10.352,8.032-23.232-0.792-37.864c-8.816-14.616-22.272-16.72-33.08-18.416c-5.008-0.776-8.976-1.584-12.4-2.944
			C140.236,22.89,153.964,19.402,169.036,19.402z M17.036,19.314c2.984,0.032,5.768,0.064,8.272,0.064
			c21.36,0,38.64,5.16,54.6,16.36c2.256,1.48,4.488,3.136,6.712,4.904c-18.224,20.008-29.584,46.304-29.584,74.76
			c0,4.424,3.584,8,8,8s8-3.576,8-8c0-28.696,14.8-58.616,39.68-77.272c7.96,6.6,17.392,8.16,25.336,9.4
			c10.784,1.688,17.112,3.024,21.84,10.864c4.728,7.832,2.944,14.056-0.624,24.376c-3.584,10.344-8.032,23.224,0.792,37.856
			c8.824,14.624,22.296,16.696,33.12,18.352c10.784,1.656,17.112,2.968,21.832,10.808c4.728,7.84,2.944,14.064-0.624,24.376
			c-3.576,10.352-8.032,23.224,0.8,37.864c8.832,14.64,22.304,16.744,33.128,18.432c2.576,0.4,5.072,0.8,7.432,1.336
			c-2.368,4.16-4.84,8.064-7.392,11.608c-0.696,0.96-1.168,2.072-1.384,3.24c-11.616,63.48-23.928,125.128-30.232,156.216
			c-1.56,7.704-7.328,13.744-15.384,15.856c-1.504,0.472-2.744,0.688-3.904,0.688h-34.184c-2.176,0-4.272-0.376-6.296-0.936
			c-6.776-1.904-12.208-7.048-14.112-13.272l-12.504-51.976l-6.904-34.528c-0.912-4.552-3.136-8.552-6.176-11.744
			c-5.152-7.072-13.28-11.184-22.056-10.76c-8.176,0.416-15.264,4.808-19.424,11.832c-2.528,3.008-4.368,6.632-5.176,10.68
			l-6.928,34.624l-12.36,51.408c-2.096,6.896-7.8,12.256-15.184,14.072c-1.448,0.416-2.616,0.6-3.664,0.6H31.54H17.036V19.314z
			 M465.036,467.402h-448v-32H31.54h0.944h4.88c15.2,0,28.392-10.824,31.376-25.728l10.664-53.32l9.256-38.528
			c0.04-0.136,0.128-0.2,0.176-0.328c1.432-1.28,3.28-2.096,5.32-2.096h5.768c1.832,0,3.528,0.656,4.896,1.72
			c0.2,0.328,0.448,0.552,0.624,0.912l9.256,38.472l9.344,46.736c2.416,12.104,10.272,21.968,20.648,27.456
			c1.496,0.832,3.056,1.552,4.664,2.16c0.4,0.152,0.808,0.248,1.216,0.384c0.984,0.336,1.968,0.696,2.984,0.944
			c2.864,0.816,5.496,1.216,8.032,1.216c0.336-0.008,0.704,0,0.944,0h0.736h33.184h1h0.24c0.72,0,1.4-0.152,2.112-0.192
			c0.648-0.056,1.288-0.072,1.936-0.176c17.96-1.8,32.592-15.2,35.472-33.44l9.872-64.776c9.688,6.304,26.072,16.376,53.768,33.392
			c1.256,0.784,2.704,1.192,4.184,1.192h160V467.402z"/>
	</g>
</g>
<g>
	<g>
		<path d="M65.036,139.402c-4.416,0-8,3.576-8,8v16c0,4.424,3.584,8,8,8s8-3.576,8-8v-16
			C73.036,142.978,69.452,139.402,65.036,139.402z"/>
	</g>
</g>
<g>
	<g>
		<path d="M393.036,235.402h-16c-4.416,0-8,3.576-8,8s3.584,8,8,8h16c4.416,0,8-3.576,8-8S397.452,235.402,393.036,235.402z"/>
	</g>
</g>
<g>
	<g>
		<path d="M372.348,291.402l-11.312-11.312c-3.128-3.128-8.184-3.128-11.312,0c-3.128,3.128-3.128,8.184,0,11.312l11.312,11.312
			c1.56,1.56,3.608,2.344,5.656,2.344c2.048,0,4.096-0.784,5.656-2.344C375.476,299.586,375.476,294.53,372.348,291.402z"/>
	</g>
</g>
<g>
</g>
<g>
</g>
<g>
</g>
<g>
</g>
<g>
</g>
<g>
</g>
<g>
</g>
<g>
</g>
<g>
</g>
<g>
</g>
<g>
</g>
<g>
</g>
<g>
</g>
<g>
</g>
<g>
</g>
</svg>
