<?xml version="1.0" encoding="iso-8859-1"?>
<!-- Generator: Adobe Illustrator 19.0.0, SVG Export Plug-In . SVG Version: 6.00 Build 0)  -->
<svg version="1.1" id="Capa_1" xmlns="http://www.w3.org/2000/svg" xmlns:xlink="http://www.w3.org/1999/xlink" x="0px" y="0px"
	 viewBox="0 0 480 480" style="enable-background:new 0 0 480 480;" xml:space="preserve">
<g>
	<g>
		<path d="M448,200v-46.72c0-8.584-4.632-16.568-12.096-20.832l-44.24-25.28c-3.616-2.072-7.736-3.168-11.912-3.168H376V70.528
			c9.288-3.312,16-12.112,16-22.528V24c0-13.232-10.768-24-24-24h-80c-13.232,0-24,10.768-24,24v24c0,10.416,6.712,19.216,16,22.528
			V104h-3.752c-4.176,0-8.296,1.096-11.904,3.168l-44.256,25.28C212.632,136.712,208,144.696,208,153.28V200
			c0,10.432,6.688,19.328,16,22.632v146.736c-9.312,3.304-16,12.2-16,22.632v64c0,13.232,10.768,24,24,24h40
			c2.128,0,4.16-0.84,5.656-2.344L291.312,464h73.376l13.656,13.656C379.84,479.16,381.872,480,384,480h40c13.232,0,24-10.768,24-24
			v-64c0-10.432-6.688-19.328-16-22.632V222.632C441.312,219.328,448,210.432,448,200z M280,24c0-4.416,3.584-8,8-8h16v8
			c0,4.424,3.576,8,8,8s8-3.576,8-8v-8h16v8c0,4.424,3.576,8,8,8s8-3.576,8-8v-8h16c4.416,0,8,3.584,8,8v24c0,4.416-3.584,8-8,8h-80
			c-4.416,0-8-3.584-8-8V24z M360,72v32h-64V72H360z M368,224h48v144H312c-4.424,0-8,3.576-8,8s3.576,8,8,8h112c4.416,0,8,3.584,8,8
			v64c0,4.416-3.584,8-8,8h-36.688l-13.656-13.656C372.16,448.84,370.128,448,368,448h-80c-2.128,0-4.16,0.84-5.656,2.344
			L268.688,464H232c-4.416,0-8-3.584-8-8v-64c0-4.416,3.584-8,8-8h32c4.424,0,8-3.576,8-8s-3.576-8-8-8h-24V224h48
			c4.424,0,8-3.576,8-8s-3.576-8-8-8h-56c-4.416,0-8-3.584-8-8v-46.72c0-2.856,1.544-5.52,4.032-6.944l44.256-25.28
			c1.208-0.688,2.568-1.056,3.96-1.056H288h80h11.752c1.392,0,2.76,0.368,3.968,1.056l44.248,25.28
			c2.488,1.424,4.032,4.088,4.032,6.944V200c0,4.416-3.584,8-8,8h-56c-4.424,0-8,3.576-8,8S363.576,224,368,224z"/>
	</g>
</g>
<g>
	<g>
		<path d="M360,240h-64c-13.232,0-24,11.424-24,25.456v24.384c0,2.2,0.408,4.352,1.2,6.36l17.896,45.584
			c2.232,5.656,7.232,9.584,13.064,10.248c5.672,0.576,11.368-1.968,14.736-6.864l8.904-13.52l9.304,13.528
			c3.016,4.384,7.88,6.944,12.992,6.944c0.576,0,1.16-0.032,1.736-0.096c5.832-0.664,10.832-4.592,13.064-10.264l17.24-43.896
			c1.24-3.112,1.864-6.416,1.864-9.816v-22.592C384,251.424,373.232,240,360,240z M368,288.048c0,1.376-0.248,2.696-0.744,3.952
			l-16.968,44.112l-9.296-13.512c-2.992-4.368-7.848-6.968-12.992-6.968c-5.144,0-10,2.6-12.992,6.96l-9.016,13.336L288,289.832
			v-24.384c0-5.208,3.584-9.448,8-9.448h27.232c-2,4.696-3.232,10.096-3.232,16c0,4.424,3.576,8,8,8s8-3.576,8-8
			c0-9.768,4.736-16,8-16h16c4.416,0,8,4.24,8,9.456V288.048z"/>
	</g>
</g>
<g>
	<g>
		<path d="M173.896,226.592C172.384,224.936,170.24,224,168,224H40c-2.24,0-4.384,0.936-5.896,2.592s-2.264,3.864-2.072,6.104
			l5,57.464l10.984,174.344c0.008,0.08,0.048,0.144,0.056,0.224C48.456,473.2,55.424,480,64,480h80
			c8.576,0,15.544-6.808,15.928-15.288c0.008-0.08,0.048-0.144,0.056-0.216l9.96-162.56l6.024-69.232
			C176.168,230.464,175.416,228.248,173.896,226.592z M64,456v-32h32v16c0,4.424,3.576,8,8,8s8-3.576,8-8v-16h32l0.016,32H64z
			 M144.664,408H63.336l-8.344-95.952c5.552,4.496,12.552,7.952,22.32,7.952c17.088,0,25.808-10.472,32.824-18.872
			c6.984-8.384,11.376-13.128,20.52-13.128c9.152,0,13.552,4.744,20.544,13.136c0.832,0.992,1.656,1.984,2.496,2.96L144.664,408z
			 M155.6,282.248C149.672,276.664,142.032,272,130.656,272c-17.088,0-25.808,10.472-32.824,18.872
			C90.848,299.256,86.456,304,77.312,304c-9.152,0-13.552-4.744-20.544-13.136c-1.304-1.568-2.664-3.064-4.016-4.568L48.728,240
			h110.544L155.6,282.248z"/>
	</g>
</g>
<g>
	<g>
		<path d="M168,48h-8v-8c0-4.424-3.576-8-8-8s-8,3.576-8,8v8h-8c-4.424,0-8,3.576-8,8s3.576,8,8,8h8v8c0,4.424,3.576,8,8,8
			s8-3.576,8-8v-8h8c4.424,0,8-3.576,8-8S172.424,48,168,48z"/>
	</g>
</g>
<g>
	<g>
		<path d="M72,128h-8v-8c0-4.424-3.576-8-8-8s-8,3.576-8,8v8h-8c-4.424,0-8,3.576-8,8s3.576,8,8,8h8v8c0,4.424,3.576,8,8,8
			s8-3.576,8-8v-8h8c4.424,0,8-3.576,8-8S76.424,128,72,128z"/>
	</g>
</g>
<g>
	<g>
		<path d="M392,160h-24c-4.424,0-8,3.576-8,8s3.576,8,8,8h24c4.424,0,8-3.576,8-8S396.424,160,392,160z"/>
	</g>
</g>
<g>
	<g>
		<path d="M336,160h-8c-4.424,0-8,3.576-8,8s3.576,8,8,8h8c4.424,0,8-3.576,8-8S340.424,160,336,160z"/>
	</g>
</g>
<g>
</g>
<g>
</g>
<g>
</g>
<g>
</g>
<g>
</g>
<g>
</g>
<g>
</g>
<g>
</g>
<g>
</g>
<g>
</g>
<g>
</g>
<g>
</g>
<g>
</g>
<g>
</g>
<g>
</g>
</svg>
