<?xml version="1.0" encoding="iso-8859-1"?>
<!-- Generator: Adobe Illustrator 19.0.0, SVG Export Plug-In . SVG Version: 6.00 Build 0)  -->
<svg version="1.1" id="Capa_1" xmlns="http://www.w3.org/2000/svg" xmlns:xlink="http://www.w3.org/1999/xlink" x="0px" y="0px"
	 viewBox="0 0 480 480" style="enable-background:new 0 0 480 480;" xml:space="preserve">
<g>
	<g>
		<path d="M472,399.849H324.944l-9.368-18.736c-4.088-8.176-12.32-13.264-21.464-13.264H288v-96c0-3.784-0.96-7.32-2.52-10.504
			c15.408-5.56,26.52-20.192,26.52-37.496v-88c0-3.232-1.944-6.16-4.936-7.392c-2.984-1.248-6.432-0.56-8.72,1.736l-21.656,21.656
			H240h-96H48c-22.056,0-40,17.944-40,40v64c0,4.424,3.584,8,8,8h1.472c-0.896,2.512-1.472,5.184-1.472,8v97.472
			c-9.288,3.312-16,12.112-16,22.528v48c0,22.056,17.944,40,40,40h432c4.424,0,8-3.576,8-8v-64
			C480,403.425,476.424,399.849,472,399.849z M216,191.849c0-13.232,10.768-24,24-24h40c2.128,0,4.16-0.84,5.656-2.344L296,155.161
			v68.688c0,13.232-10.768,24-24,24h-56V191.849z M248,351.849c4.424,0,8-3.576,8-8v-72c0-4.416,3.584-8,8-8c4.416,0,8,3.584,8,8v96
			h-48v-96c0-4.416,3.592-8,8-8s8,3.584,8,8v72C240,348.273,243.584,351.849,248,351.849z M120,191.849c0-13.232,10.768-24,24-24
			h64.016c-0.224,0.304-0.392,0.664-0.616,0.976c-0.472,0.664-0.88,1.36-1.304,2.056c-0.84,1.344-1.6,2.728-2.272,4.176
			c-0.36,0.784-0.712,1.56-1.024,2.368c-0.6,1.544-1.072,3.136-1.48,4.76c-0.184,0.752-0.424,1.48-0.568,2.248
			c-0.456,2.408-0.752,4.872-0.752,7.416v56h-80V191.849z M184,351.849c4.416,0,8-3.576,8-8v-72c0-4.416,3.592-8,8-8s8,3.584,8,8v96
			h-48v-96c0-4.416,3.592-8,8-8s8,3.584,8,8v72C176,348.273,179.584,351.849,184,351.849z M120,351.849c4.416,0,8-3.576,8-8v-72
			c0-4.416,3.592-8,8-8s8,3.584,8,8v96H96v-96c0-4.416,3.592-8,8-8s8,3.584,8,8v72C112,348.273,115.584,351.849,120,351.849z
			 M24,191.849c0-13.232,10.768-24,24-24h64.016c-0.232,0.304-0.4,0.664-0.624,0.976c-0.472,0.664-0.88,1.36-1.304,2.056
			c-0.84,1.344-1.6,2.728-2.272,4.176c-0.36,0.784-0.712,1.56-1.024,2.368c-0.6,1.544-1.072,3.136-1.48,4.76
			c-0.184,0.752-0.424,1.48-0.568,2.248c-0.448,2.408-0.744,4.872-0.744,7.416v56H24V191.849z M56,351.849c4.416,0,8-3.576,8-8v-72
			c0-4.416,3.592-8,8-8s8,3.584,8,8v96H32v-96c0-4.416,3.592-8,8-8s8,3.584,8,8v72C48,348.273,51.584,351.849,56,351.849z
			 M464,463.849H256v-24c0-4.424-3.576-8-8-8c-4.416,0-8,3.576-8,8v24h-48v-24c0-4.424-3.584-8-8-8s-8,3.576-8,8v24h-48v-24
			c0-4.424-3.584-8-8-8s-8,3.576-8,8v24H64v-24c0-4.424-3.584-8-8-8s-8,3.576-8,8v24h-8c-13.232,0-24-10.768-24-24v-48
			c0-4.416,3.592-8,8-8h64h64h64h64h14.112c3.056,0,5.8,1.696,7.16,4.424l11.576,23.16c1.352,2.704,4.12,4.416,7.152,4.416h144
			V463.849z"/>
	</g>
</g>
<g>
	<g>
		<path d="M380,239.849c-15.44,0-28,12.56-28,28s12.56,28,28,28s28-12.56,28-28S395.44,239.849,380,239.849z M380,279.849
			c-6.616,0-12-5.384-12-12c0-6.616,5.384-12,12-12c6.616,0,12,5.384,12,12C392,274.465,386.616,279.849,380,279.849z"/>
	</g>
</g>
<g>
	<g>
		<path d="M208,63.849h-8v-8c0-4.424-3.584-8-8-8s-8,3.576-8,8v8h-8c-4.416,0-8,3.576-8,8s3.584,8,8,8h8v8c0,4.424,3.584,8,8,8
			s8-3.576,8-8v-8h8c4.416,0,8-3.576,8-8S212.416,63.849,208,63.849z"/>
	</g>
</g>
<g>
	<g>
		<path d="M443.832,40.833l-23.8-13.024l-13.024-23.8c-2.8-5.144-11.232-5.144-14.032,0l-13.024,23.8l-23.8,13.024
			c-2.56,1.4-4.152,4.096-4.152,7.016s1.592,5.616,4.168,7.016l23.8,13.024l13.024,23.8c1.392,2.568,4.088,4.16,7.008,4.16
			c2.92,0,5.616-1.592,7.016-4.168l13.024-23.8l23.8-13.024c2.568-1.392,4.16-4.088,4.16-7.008S446.408,42.233,443.832,40.833z
			 M410.304,54.977c-1.344,0.736-2.448,1.832-3.176,3.176L400,71.177l-7.128-13.024c-0.736-1.344-1.832-2.448-3.176-3.176
			l-13.024-7.128l13.024-7.128c1.344-0.736,2.448-1.832,3.176-3.176L400,24.521l7.128,13.024c0.736,1.344,1.832,2.448,3.176,3.176
			l13.024,7.128L410.304,54.977z"/>
	</g>
</g>
<g>
</g>
<g>
</g>
<g>
</g>
<g>
</g>
<g>
</g>
<g>
</g>
<g>
</g>
<g>
</g>
<g>
</g>
<g>
</g>
<g>
</g>
<g>
</g>
<g>
</g>
<g>
</g>
<g>
</g>
</svg>
