<?xml version="1.0" encoding="iso-8859-1"?>
<!-- Generator: Adobe Illustrator 19.0.0, SVG Export Plug-In . SVG Version: 6.00 Build 0)  -->
<svg version="1.1" id="Capa_1" xmlns="http://www.w3.org/2000/svg" xmlns:xlink="http://www.w3.org/1999/xlink" x="0px" y="0px"
	 viewBox="0 0 480 480" style="enable-background:new 0 0 480 480;" xml:space="preserve">
<g>
	<g>
		<path d="M456,0h-48H72H24C10.768,0,0,10.768,0,24v264v48c0,13.232,10.768,24,24,24h150.416l-13.088,72h-31.432
			c-9.152,0-17.376,5.08-21.472,13.264c-3.744,7.496-3.352,16.224,1.048,23.352c4.4,7.128,12.04,11.384,20.416,11.384h220.216
			c8.376,0,16.008-4.256,20.416-11.384s4.8-15.856,1.048-23.352C367.488,437.08,359.264,432,350.112,432H318.68l-13.088-72H456
			c13.232,0,24-10.768,24-24v-48V24C480,10.768,469.232,0,456,0z M80,16h320v264H80V16z M16,24c0-4.408,3.592-8,8-8h40v264H16V24z
			 M312,448h38.112c3.048,0,5.792,1.696,7.16,4.424c1.8,3.6,0.352,6.64-0.344,7.784c-0.72,1.136-2.792,3.792-6.816,3.792H129.888
			c-4.024,0-6.104-2.656-6.808-3.8c-0.704-1.144-2.152-4.176-0.344-7.784c1.36-2.72,4.104-4.416,7.152-4.416H168h64
			c4.416,0,8-3.584,8-8c0-4.416-3.584-8-8-8h-54.416l13.088-72h98.648l13.096,72H280c-4.416,0-8,3.584-8,8c0,4.416,3.584,8,8,8H312z
			 M464,336c0,4.408-3.592,8-8,8H296H184H24c-4.408,0-8-3.592-8-8v-40h56h336h56V336z M464,280h-48V16h40c4.408,0,8,3.592,8,8V280z"
			/>
	</g>
</g>
<g>
	<g>
		<path d="M256,312h-32c-4.416,0-8,3.584-8,8c0,4.416,3.584,8,8,8h32c4.416,0,8-3.584,8-8C264,315.584,260.416,312,256,312z"/>
	</g>
</g>
<g>
	<g>
		<path d="M224,128c-4.416,0-8,3.584-8,8v8c0,4.416,3.584,8,8,8s8-3.584,8-8v-8C232,131.584,228.416,128,224,128z"/>
	</g>
</g>
<g>
	<g>
		<path d="M380.712,153.528c-3.568-2.6-8.584-1.808-11.176,1.76L354.472,176h-35.464c0.472-2.544,0.952-5.088,1.424-7.664
			c9.912-14.656,17-37.896,17-56.144c0-30.832-8.944-50.464-27.336-60.016c-7.488-4.288-19.352-4.504-32.896-4.336l-4.072,0.032
			c-7.88,0-14.944,1.456-21.424,4.08c-4.84,1.536-9.048,3.472-12.72,5.712c-0.088-0.056-0.168-0.12-0.256-0.176
			c-1.76-1.24-3.56-2.312-5.384-3.296c-0.048-0.024-0.864-0.464-0.912-0.496c-0.392-0.2-0.792-0.392-1.184-0.584
			c-0.848-0.904-1.912-1.624-3.144-2.056c-2.208-0.792-5.208-1.448-7.504-1.936c-0.52-0.112-0.992-0.208-1.368-0.288
			c-1.288-0.56-2.792-0.792-4.248-0.608c-1.88-0.168-4.016-0.2-6.36-0.232c-0.424-0.04-0.832-0.072-1.184-0.072l-3.376-0.024
			c-3.032-0.024-6.392-0.072-13.04,0.152c-15.896,1.968-16.048,2.016-17.008,2.352c-1.696,0.576-3.104,1.2-3.904,1.68
			C155.08,59.8,146.424,74.328,143.656,96h-19.36l-13.624-20.44c-2.448-3.68-7.424-4.68-11.096-2.216
			c-3.672,2.448-4.664,7.416-2.216,11.096l15.984,24c1.488,2.224,3.984,3.56,6.656,3.56h24c0,0.064,0,0.128,0,0.192
			c0,18.256,6.376,41.512,16.296,56.168c1.984,10.48,10.832,58.36,13.328,70.632c1.616,7.968,7.352,14.2,14.952,16.184
			c1.824,0.552,3.352,0.824,5.056,0.824c0.144,0.008,0.32,0,0.456,0h15.664c0.064,0,0.136,0,0.208,0c1.8,0,3.344-0.224,4.832-0.648
			c7.264-1.776,13.128-7.304,15.376-14.744L240,202.744l9.92,38.184c2.168,7.112,8.024,12.64,15,14.344
			c1.704,0.488,3.304,0.728,4.896,0.728c0.144,0,0.304,0,0.432,0h15.664c0.144,0.008,0.312,0,0.456,0
			c1.696,0,3.408-0.272,4.92-0.736c7.904-2.072,13.824-8.304,15.44-16.272c2.048-10.096,5.504-27.368,9.256-46.992h42.56
			c2.56,0,4.968-1.224,6.472-3.296l17.456-24C385.072,161.128,384.28,156.128,380.712,153.528z M306.376,160.504
			c-0.704,0.976-1.176,2.096-1.384,3.272l-0.232,1.272c-0.672,3.672-1.352,7.328-2.032,10.944H280c-4.416,0-8,3.584-8,8s3.584,8,8,8
			h19.696c-3.504,18.28-6.704,34.264-8.64,43.816c-0.392,1.936-1.856,3.456-3.816,3.976c-0.088,0.024-0.632,0.152-0.816,0.2
			c-0.256,0-0.504,0-0.808,0.016h-15.072c-0.296-0.016-0.552-0.024-0.792-0.016c-0.192-0.04-0.744-0.168-0.744-0.168
			c-1.832-0.448-3.248-1.768-3.696-3.216l-11.16-42.992c-1.704-6.544-7.392-10.952-14.16-10.952s-12.456,4.4-14.16,10.952
			l-11.064,42.664c-0.536,1.768-1.952,3.088-3.792,3.536c-0.088,0.016-0.56,0.128-0.744,0.168c-0.272-0.016-0.504,0-0.792,0.016
			h-15.072c-0.296-0.016-0.56-0.032-0.808-0.016c-0.192-0.048-0.816-0.2-0.816-0.2c-1.96-0.512-3.424-2.032-3.816-3.976
			c-2.672-13.168-13.112-67.488-13.952-72.064c-0.208-1.168,0.032-2.272-0.664-3.24C165.896,148.808,160,127.584,160,112.192
			c0-0.072,0-0.128,0-0.192h24c4.416,0,8-3.584,8-8s-3.584-8-8-8h-24.344c2.256-15.096,8.112-24.744,18.16-29.912
			c0.064-0.032,0.272-0.152,0.744-0.336c2.88-0.408,13.68-1.744,13.688-1.776c5.56-0.152,8.752-0.12,11.624-0.08l3.032,0.024
			c0.376,0.048,0.736,0.08,1.064,0.08c0,0,4.704,0.056,6.648,0.128c1,0.312,1.936,0.504,2.68,0.664c0.616,0.128,1.304,0.272,2,0.424
			c0.576,0.416,1.224,0.76,1.92,1.016c1.336,0.488,2.64,1.064,4.536,2.056c0.248,0.136,0.528,0.336,0.776,0.472
			C218.496,79.248,216,92.176,216,104c0,4.416,3.584,8,8,8s8-3.584,8-8c0-8.984,1.448-19.552,9.16-27.6
			c1.504-0.224,2.976-0.752,4.184-1.84c0.736-0.664,1.488-1.296,2.792-2.288c0.704-0.528,1.4-1.056,2.344-1.68
			c1.64-1.152,3.328-2.144,5.064-2.992c6.056-2.112,13.552-3.464,23.04-3.68c0.144,0,0.272-0.08,0.416-0.096
			c7.08-0.08,19.264-0.056,23.176,2.256c0.136,0.08,0.272,0.152,0.408,0.224c12.856,6.6,18.84,21.184,18.84,45.88
			C321.424,127.576,314.816,148.8,306.376,160.504z"/>
	</g>
</g>
<g>
	<g>
		<path d="M112,240h-8c-4.416,0-8,3.584-8,8c0,4.416,3.584,8,8,8h8c4.416,0,8-3.584,8-8C120,243.584,116.416,240,112,240z"/>
	</g>
</g>
<g>
	<g>
		<path d="M152,240h-8c-4.416,0-8,3.584-8,8c0,4.416,3.584,8,8,8h8c4.416,0,8-3.584,8-8C160,243.584,156.416,240,152,240z"/>
	</g>
</g>
<g>
</g>
<g>
</g>
<g>
</g>
<g>
</g>
<g>
</g>
<g>
</g>
<g>
</g>
<g>
</g>
<g>
</g>
<g>
</g>
<g>
</g>
<g>
</g>
<g>
</g>
<g>
</g>
<g>
</g>
</svg>
