<?xml version="1.0" encoding="iso-8859-1"?>
<!-- Generator: Adobe Illustrator 19.0.0, SVG Export Plug-In . SVG Version: 6.00 Build 0)  -->
<svg xmlns="http://www.w3.org/2000/svg" xmlns:xlink="http://www.w3.org/1999/xlink" version="1.1" id="Layer_1" x="0px" y="0px" viewBox="0 0 512 512" style="enable-background:new 0 0 512 512;" xml:space="preserve">
<g>
	<g>
		<path d="M406.205,286.205h-300.41C47.459,286.205,0,333.665,0,392c0,58.335,47.459,105.794,105.795,105.794h300.41    C464.541,497.794,512,450.335,512,392C512,333.664,464.541,286.205,406.205,286.205z M241,467.795H105.795    C64.002,467.794,30,433.793,30,392c0-41.793,34.002-75.794,75.795-75.794H241V467.795z M406.205,467.794H271V316.205h135.205    C447.998,316.205,482,350.207,482,392C482,433.793,447.998,467.794,406.205,467.794z"/>
	</g>
</g>
<g>
	<g>
		<path d="M372.848,91.442C345.406,27.013,270.665-3.08,206.233,24.361c-64.43,27.441-94.522,102.184-67.081,166.614    c20.55,48.248,67.616,77.237,117.021,77.237c16.571,0,33.411-3.264,49.594-10.156C370.197,230.615,400.289,155.872,372.848,91.442    z M161.943,164.964c-11.524-45.514,11.528-94.041,56.046-113.002c12.362-5.265,25.219-7.757,37.878-7.757    c32.926,0,64.495,16.867,82.431,45.648L161.943,164.964z M345.984,177.438c-9.677,24.036-28.135,42.864-51.974,53.018    c-12.362,5.265-25.219,7.757-37.878,7.757c-32.927-0.001-64.495-16.867-82.431-45.648l176.364-75.115    C355.116,137.268,353.768,158.106,345.984,177.438z"/>
	</g>
</g>
<g>
</g>
<g>
</g>
<g>
</g>
<g>
</g>
<g>
</g>
<g>
</g>
<g>
</g>
<g>
</g>
<g>
</g>
<g>
</g>
<g>
</g>
<g>
</g>
<g>
</g>
<g>
</g>
<g>
</g>
</svg>
